<svg width="572" height="388" viewBox="0 0 572 388" fill="none" xmlns="http://www.w3.org/2000/svg">
<path d="M0.0594884 311C0.859488 284.6 32.7262 269.333 48.5595 265L131.559 387H10.5595C6.72616 372.667 -0.740512 337.4 0.0594884 311Z" fill="#2D2C59"/>
<path d="M323.644 332.578L291.644 295.078L242.144 320.078L287.644 369.078L351.144 367.078C371.644 371.245 415.044 377.078 424.644 367.078C434.244 357.078 428.644 339.911 424.644 332.578H323.644Z" fill="#FEA38C"/>
<path d="M253.144 248.578C237.544 230.178 222.31 234.911 216.644 239.578C198.644 247.178 204.81 267.745 210.144 277.078L249.644 329.078L291.644 294.578C285.31 286.911 268.744 266.978 253.144 248.578Z" fill="#3179DC"/>
<path d="M109.644 218.578C74.0436 225.378 49.1436 245.745 41.1436 255.078C35.1436 267.878 46.3103 335.745 52.6436 368.078H224.644L236.644 293.578C238.477 284.245 240.144 262.578 232.144 250.578C224.144 238.578 185.477 224.245 167.144 218.578C162.81 215.745 145.244 211.778 109.644 218.578Z" fill="#3DA2FF"/>
<path d="M150.644 332.078L118.644 294.078L76.1437 327.078L127.644 387.078H308.644C326.644 387.078 333.477 373.745 334.644 367.078C336.144 362.578 335.844 350.578 322.644 338.578C309.444 326.578 292.81 329.245 286.144 332.078H150.644Z" fill="#F4EDCC"/>
<path d="M319.144 353.078C322.31 358.745 326.644 377.078 319.144 381.578C311.644 386.078 303.644 381.578 303.644 381.578C303.644 381.578 307.944 370.578 307.144 366.578" stroke="#F8A48F" stroke-width="7" stroke-linecap="round" stroke-linejoin="round"/>
<path d="M78.1437 245.078C64.5437 229.078 47.1437 236.745 40.1437 242.578C27.3437 253.378 31.477 271.078 35.1437 278.578L78.1437 327.578L119.144 293.078C111.144 283.745 91.7437 261.078 78.1437 245.078Z" fill="#3179DC"/>
<rect x="111.144" y="108.078" width="55" height="111" fill="#F4EDCC"/>
<path d="M132.144 167.578L166.144 199.578V182.078L132.144 167.578Z" fill="#F8A48F"/>
<path d="M226 79C226 37 199.477 19.9115 187.644 17.5781C117.144 1.57812 114.644 72.0781 114.144 101.078C113.744 124.278 118.31 146.745 120.644 155.078C129.477 169.745 153.744 196.978 180.144 188.578C206.544 180.178 221.667 141.833 224 128.5C225 125.667 226 118 226 79Z" fill="#F4EDCC"/>
<circle cx="208" cy="107" r="8" fill="black"/>
<path d="M185 94.5L193 114.5L197 125C200 131.5 197.7 137.1 190.5 137.5C183.3 137.9 181.833 137.667 181 137.5" stroke="#F8A48F" stroke-width="5" stroke-linecap="round" stroke-linejoin="round"/>
<path d="M199 78H213" stroke="#E7596F" stroke-width="10" stroke-linecap="round" stroke-linejoin="round"/>
<path d="M150 77H164" stroke="#E7596F" stroke-width="10" stroke-linecap="round" stroke-linejoin="round"/>
<path d="M181.606 149.578L149.606 143.078C147.939 143.078 145.006 144.578 146.606 150.578C148.606 158.078 156.606 166.078 164.606 166.078C172.606 166.078 177.106 163.578 181.606 158.078C185.206 153.678 183.106 150.578 181.606 149.578Z" fill="#241A29"/>
<path d="M147.144 151.078C150.81 150.912 159.144 153.578 163.144 165.578C159.477 165.245 151.144 161.878 147.144 151.078Z" fill="#F86359"/>
<path d="M167.144 154.078C156.744 155.278 151.477 147.245 150.144 143.078L179.144 149.078C179.477 150.245 177.544 152.878 167.144 154.078Z" fill="white"/>
<path d="M76.5 44C79.3 26.4 96.6667 18.6667 105 17C104 11.5 105 10 109.5 7.5C113.1 5.5 117.667 10.3333 119.5 13C119.9 7 128.333 2.5 132.5 1C144 1.33333 170 1.8 182 1C197 1.07288e-06 208 0.500001 222.5 13C234.1 23 237.667 43.5 238 52.5C238.833 58.1667 237.9 69.7 227.5 70.5C214.5 71.5 193 57 184 48C176.8 40.8 166 38 161.5 37.5C165.667 41.8333 172.2 51.8 165 57C157.8 62.2 151.333 56.1667 149 52.5C149 72.1 135.667 82.6667 129 85.5V98C129 100 126.5 104 121 104C116.6 104 114.5 100 114 98C112 108 105.2 126.7 94 121.5C82.8 116.3 76.6667 101 75 94C74 81 75.3 58.4 76.5 44Z" fill="#A73C58"/>
<mask id="mask0_301_4" style="mask-type:alpha" maskUnits="userSpaceOnUse" x="74" y="0" width="165" height="123">
<path d="M76.5 44C79.3 26.4 96.6667 18.6667 105 17C104 11.5 105 10 109.5 7.5C113.1 5.5 117.667 10.3333 119.5 13C119.9 7 128.333 2.5 132.5 1C144 1.33333 170 1.8 182 1C197 1.07288e-06 208 0.500001 222.5 13C234.1 23 237.667 43.5 238 52.5C238.833 58.1667 237.9 69.7 227.5 70.5C214.5 71.5 193 57 184 48C176.8 40.8 166 38 161.5 37.5C165.667 41.8333 172.2 51.8 165 57C157.8 62.2 151.333 56.1667 149 52.5C149 72.1 135.667 82.6667 129 85.5V98C129 100 126.5 104 121 104C116.6 104 114.5 100 114 98C112 108 105.2 126.7 94 121.5C82.8 116.3 76.6667 101 75 94C74 81 75.3 58.4 76.5 44Z" fill="#A73C58"/>
</mask>
<g mask="url(#mask0_301_4)">
<path d="M141.5 45C144.3 17.8 118 15 104.5 17C78.5 19.5 73.5 39 71 57.5C69 72.3 73.8333 91.3333 76.5 99C75.8333 96.6667 75.4 90.1 79 82.5C83.5 73 98 75 108 75C118 75 138 79 141.5 45Z" fill="#E7596F"/>
<path d="M148.5 18.5C132.1 19.3 128.667 8.5 129 3L137.5 -2.5C159.333 -2.16667 204.7 -1.2 211.5 0C220 1.5 225 11 233.5 22.5C240.3 31.7 239.333 47 238 53.5C219 54 208.5 44 197 33.5C185.5 23 169 17.5 148.5 18.5Z" fill="#E7596F"/>
</g>
<path d="M92.1437 104.578C91.7437 90.5782 107.31 88.4115 115.144 89.0782C115.977 103.078 116.544 131.578 112.144 133.578C106.644 136.078 102.144 132.078 98.1437 129.078C94.1437 126.078 92.6437 122.078 92.1437 104.578Z" fill="#F4EDCC"/>
<path d="M110.144 108.078V114.078M110.144 120.078V114.078M110.144 114.078H105.644" stroke="#F8A48F" stroke-width="6" stroke-linecap="round" stroke-linejoin="round"/>
<circle cx="155" cy="107" r="8" fill="black"/>
<rect x="29" y="377" width="213" height="10" fill="#227952"/>
<path d="M144 377C144 378.313 143.754 379.614 143.277 380.827C142.799 382.04 142.1 383.142 141.218 384.071C140.335 385 139.288 385.736 138.135 386.239C136.983 386.741 135.748 387 134.5 387C133.252 387 132.017 386.741 130.865 386.239C129.712 385.736 128.665 385 127.782 384.071C126.9 383.142 126.201 382.04 125.723 380.827C125.246 379.614 125 378.313 125 377L134.5 377H144Z" fill="#29AA54"/>
<path fill-rule="evenodd" clip-rule="evenodd" d="M45.5 360.5C45.9 370.5 40.6667 375.667 38 377H230.5C224.1 373.4 223.167 364.5 223.5 360.5H186C180 360.5 176.5 357.5 175.5 356C172.833 352.333 165 345 155 345C145 345 139.5 351.333 138 354.5C135 340.5 127.5 336.5 115.5 331.5C111.451 329.813 107.63 328.411 104.113 327.12C97.2073 324.585 91.4756 322.482 87.5 319.5C82.7 315.9 79.8333 307.667 79 304H73C73.6667 307.333 76.1 315.4 80.5 321C90.1348 329.97 94.2506 330.993 100.622 332.577C103.839 333.377 107.632 334.319 113 336.5C125.775 341.69 128.35 349.795 129.632 353.833C129.932 354.776 130.161 355.498 130.434 355.907C122.926 345.482 110.474 342.497 101.5 341.5C97.8871 341.099 94.0324 341.181 90.2594 341.261C84.6338 341.381 79.1899 341.496 75 340C69.4 338 62.6667 330.5 60 327L53.5 330C57.1667 334 65.5 342.6 69.5 345C73.5 347.4 82.1667 348 86 348C88.8333 347.5 96.5 346.8 104.5 348C121.3 350 127.833 359.833 129 364.5C127.4 362.1 123.667 360.833 122 360.5H45.5ZM142.5 363C142.5 359.333 144.8 352 154 352C163.2 352 169.167 358 171 361H147C146 361 143.7 361.4 142.5 363Z" fill="#C1C1C1"/>
<path d="M380.865 242.133C382.132 237.9 386.027 235 390.445 235H552.568C559.264 235 564.069 241.453 562.149 247.867L524.135 374.867C522.868 379.1 518.973 382 514.555 382H352.432C345.736 382 340.931 375.547 342.851 369.133L380.865 242.133Z" fill="#39BFFF"/>
<path d="M266.5 41L556 235.5L350.5 367L99 294L102 222.5L141 41H266.5Z" fill="url(#paint0_linear_301_4)"/>
<path d="M258.5 379.5C258.5 383.5 261.5 386.167 263 387H518.5C524.1 387 527.167 382.333 528 380L533.5 362.5H350.5L349 367L265.5 372C263.167 372.833 258.5 375.5 258.5 379.5Z" fill="#2D2754"/>
<path d="M386.823 246.049C388.117 241.858 391.992 239 396.378 239H558.446C565.178 239 569.987 245.518 568.001 251.951L532.177 367.951C530.883 372.142 527.008 375 522.622 375H360.554C353.822 375 349.013 368.482 350.999 362.049L386.823 246.049Z" fill="#535699"/>
<ellipse cx="468.142" cy="312.45" rx="12.7784" ry="17" transform="rotate(12.4461 468.142 312.45)" fill="#BBCEE3"/>
<defs>
<linearGradient id="paint0_linear_301_4" x1="446" y1="305" x2="237.5" y2="176.5" gradientUnits="userSpaceOnUse">
<stop stop-color="#91E4FF" stop-opacity="0.46"/>
<stop offset="1" stop-color="#C4C4C4" stop-opacity="0"/>
</linearGradient>
</defs>
</svg>
